<?xml version="1.0" encoding="utf-8"?>
<!-- Generator: Adobe Illustrator 27.9.1, SVG Export Plug-In . SVG Version: 6.00 Build 0)  -->
<svg version="1.1" id="Capa_1" xmlns="http://www.w3.org/2000/svg" xmlns:xlink="http://www.w3.org/1999/xlink" x="0px" y="0px"
	 viewBox="0 0 60 50" style="enable-background:new 0 0 60 50;" xml:space="preserve">
<g>
	<g>
		<polygon points="53.4,2.8 51.7,10.3 58.7,11.9 48.7,17.1 42.8,17.1 28.5,25 26.5,21.7 41.6,13.1 42.6,8.9 		"/>
	</g>
	<g>
		<path d="M25.3,49c-13.2,0-24-10.8-24-24s10.8-24,24-24C30.7,1,35.8,2.7,40,6l-3.1,4c-3.4-2.6-7.4-4-11.6-4c-10.5,0-19,8.5-19,19
			s8.5,19,19,19s19-8.5,19-19c0-1.2-0.1-2.4-0.3-3.5l4.9-0.9c0.3,1.5,0.4,2.9,0.4,4.4C49.3,38.2,38.5,49,25.3,49z"/>
	</g>
	<g>
		<path d="M25.3,38.5c-7.5,0-13.5-6.1-13.5-13.5s6.1-13.5,13.5-13.5c2.6,0,5.1,0.7,7.2,2.1l-2.1,3.4c-1.5-1-3.3-1.5-5.1-1.5
			c-5.3,0-9.5,4.3-9.5,9.5s4.3,9.5,9.5,9.5c5.3,0,9.5-4.3,9.5-9.5h4C38.8,32.5,32.8,38.5,25.3,38.5z"/>
	</g>
	<g>
		<circle cx="25.3" cy="25" r="4.3"/>
	</g>
</g>
</svg>
