<?xml version="1.0" encoding="utf-8"?>
<!-- Generator: Adobe Illustrator 27.9.1, SVG Export Plug-In . SVG Version: 6.00 Build 0)  -->
<svg version="1.1" id="Capa_1" xmlns="http://www.w3.org/2000/svg" xmlns:xlink="http://www.w3.org/1999/xlink" x="0px" y="0px"
	 viewBox="0 0 50 50" style="enable-background:new 0 0 50 50;" xml:space="preserve">
<g>
	<polygon points="41.3,16 39.3,18.7 39.3,48.3 46.3,48.3 46.3,12.6 	"/>
	<polygon points="30.2,48.3 37.2,48.3 37.2,21.4 30.2,30.7 	"/>
	<polygon points="21.1,30.9 21.1,48.3 28.1,48.3 28.1,33.5 28,33.6 	"/>
	<polygon points="12.1,32.7 12.1,48.3 19,48.3 19,30.1 16.3,29.1 	"/>
	<polygon points="3,48.3 10,48.3 10,34.5 3,40.6 	"/>
	<polygon points="37.4,8 26.1,23 15.2,18.8 3,29.3 3,36.5 16.3,25.1 28,29.6 41.2,12 46.3,8.5 46.3,1.9 	"/>
</g>
</svg>
