<?xml version="1.0" encoding="utf-8"?>
<!-- Generator: Adobe Illustrator 27.9.1, SVG Export Plug-In . SVG Version: 6.00 Build 0)  -->
<svg version="1.1" id="Capa_1" xmlns="http://www.w3.org/2000/svg" xmlns:xlink="http://www.w3.org/1999/xlink" x="0px" y="0px"
	 viewBox="0 0 60 50" style="enable-background:new 0 0 60 50;" xml:space="preserve">
<g>
	<g>
		<path d="M29.6,39.9C12.4,39.9,2.5,25.9,2,25.3c-0.6-0.8-0.5-1.9,0.3-2.6c0.5-0.5,13.4-12.4,26.4-12.4c13,0,27.6,12.7,28.2,13.3
			c0.8,0.7,0.9,1.9,0.3,2.7C56.8,26.7,46.8,39.9,29.6,39.9z M6.4,24.4c2.9,3.3,11.1,11.5,23.2,11.5c12,0,20.1-7.5,23.1-10.7
			c-3.9-3.1-14.8-11-24-11C19.6,14.2,10,21.4,6.4,24.4z"/>
	</g>
	<g>
		<path d="M29.6,38.9c-7.6,0-13.8-6.2-13.8-13.8c0-7.6,6.2-13.8,13.8-13.8c7.6,0,13.8,6.2,13.8,13.8C43.5,32.7,37.3,38.9,29.6,38.9z
			 M29.6,15.2c-5.4,0-9.8,4.4-9.8,9.8s4.4,9.8,9.8,9.8s9.8-4.4,9.8-9.8S35.1,15.2,29.6,15.2z"/>
	</g>
	<g>
		<circle cx="29.6" cy="25.1" r="4.8"/>
	</g>
</g>
</svg>
